<?xml version="1.0" standalone="no"?>
<!DOCTYPE svg PUBLIC "-//W3C//DTD SVG 20010904//EN"
 "http://www.w3.org/TR/2001/REC-SVG-20010904/DTD/svg10.dtd">
<svg version="1.0" xmlns="http://www.w3.org/2000/svg"
 width="500.000000pt" height="500.000000pt" viewBox="0 0 500.000000 500.000000"
 preserveAspectRatio="xMidYMid meet">

<g transform="translate(0.000000,500.000000) scale(0.100000,-0.100000)"
fill="#000000" stroke="none">
<path d="M1975 3283 c-62 -4 -165 -53 -214 -103 -53 -53 -101 -164 -101 -233
0 -35 25 -128 43 -164 33 -63 154 -163 197 -163 11 0 20 -4 20 -10 0 -6 -90
-10 -250 -10 -162 0 -250 4 -250 10 0 6 8 29 19 53 10 23 38 92 61 152 23 61
51 129 61 152 11 24 19 47 19 53 0 6 4 18 9 28 5 9 14 31 21 47 7 17 16 38 21
47 5 10 9 23 9 28 0 6 9 30 20 52 11 23 16 46 12 50 -5 5 -42 8 -83 6 l-73 -3
-18 -50 c-10 -27 -27 -77 -39 -110 -11 -33 -24 -68 -29 -77 -6 -10 -10 -27
-10 -37 0 -11 -4 -23 -10 -26 -5 -3 -10 -17 -10 -30 0 -13 -4 -26 -8 -29 -4
-3 -14 -28 -22 -56 -12 -44 -35 -81 -43 -69 -2 2 -14 38 -27 79 -13 41 -27 79
-32 85 -4 5 -8 17 -8 27 0 10 -4 26 -10 36 -5 9 -23 60 -41 112 -52 156 -46
150 -140 150 -79 0 -80 -1 -74 -22 6 -20 69 -188 96 -255 5 -13 14 -34 19 -48
6 -14 14 -35 19 -47 5 -13 19 -50 31 -83 12 -33 31 -79 41 -102 11 -24 19 -49
19 -57 0 -8 5 -18 10 -21 6 -3 10 -15 10 -25 0 -18 -15 -19 -282 -23 -316 -5
-357 -10 -443 -52 -54 -27 -195 -146 -195 -166 0 -4 -13 -28 -30 -52 -16 -25
-30 -48 -30 -52 0 -3 -13 -26 -30 -50 -16 -24 -30 -46 -30 -50 0 -4 -13 -26
-30 -50 -16 -24 -30 -46 -30 -49 0 -3 -17 -34 -38 -68 -20 -35 -44 -75 -51
-90 -8 -15 -22 -37 -33 -47 -16 -18 -18 -40 -18 -241 l0 -220 30 0 c20 0 30 5
30 15 0 13 252 15 2211 15 l2211 0 73 35 c120 57 186 127 285 301 10 17 37 62
59 99 23 37 41 69 41 72 0 2 14 24 30 48 l30 44 0 280 0 281 -565 0 -565 0 0
53 c0 28 -4 58 -8 64 -6 9 -58 13 -182 15 l-175 3 -3 72 -3 72 158 3 158 3 0
60 0 60 -157 3 -158 3 0 74 0 75 178 2 177 3 0 55 0 55 -260 0 -260 0 -5 -335
-5 -335 -107 -3 c-70 -2 -108 1 -108 8 0 5 7 10 15 10 24 0 109 48 135 75 l23
25 -20 23 c-11 12 -30 33 -42 47 -18 20 -24 22 -39 12 -115 -82 -227 -81 -300
2 -44 51 -62 119 -48 190 17 88 58 128 158 154 47 13 113 -5 164 -44 41 -32
51 -29 98 30 39 48 32 60 -65 109 -68 36 -81 39 -160 39 -105 1 -165 -15 -226
-62 -63 -47 -99 -95 -123 -160 -53 -146 4 -318 134 -402 32 -21 67 -38 78 -38
10 0 18 -4 18 -10 0 -6 -55 -10 -145 -10 l-145 0 -2 338 -3 337 -80 0 -80 0
-5 -335 -5 -335 -152 -3 c-100 -2 -153 1 -153 8 0 5 8 10 18 10 31 1 83 35
142 94 47 47 61 69 79 125 34 109 23 195 -40 293 -70 108 -195 160 -364 151z
m150 -162 c17 -9 45 -38 63 -65 27 -41 32 -57 32 -107 0 -68 -12 -102 -54
-147 -120 -130 -326 -40 -326 142 0 79 42 153 104 181 59 27 128 25 181 -4z
m-1370 -817 c22 -4 51 -12 65 -18 50 -21 120 -71 120 -85 0 -23 -72 -111 -90
-111 -5 0 -15 7 -23 14 -57 57 -180 75 -243 37 -108 -66 -126 -231 -35 -320
69 -68 167 -71 259 -8 l44 29 44 -43 c24 -24 44 -51 44 -61 0 -20 -68 -69
-137 -99 -37 -16 -69 -21 -139 -21 -81 -1 -97 2 -157 31 -73 35 -131 93 -168
169 -19 40 -23 63 -23 147 1 73 6 111 18 139 27 61 119 151 179 175 57 23 150
41 182 36 11 -2 38 -7 60 -11z m614 5 c155 -27 263 -122 300 -264 42 -157 -48
-331 -207 -402 -49 -22 -71 -26 -157 -26 -85 0 -108 4 -156 26 -92 41 -165
118 -196 207 -17 46 -16 185 0 233 20 55 70 122 119 158 55 40 78 49 158 65
36 6 67 13 69 13 2 1 34 -4 70 -10z m510 -20 c10 -11 79 -101 152 -200 74 -98
137 -179 142 -179 4 0 7 85 7 188 0 133 4 192 12 200 17 17 133 16 147 -2 8
-9 11 -108 9 -342 l-3 -329 -77 -3 c-68 -2 -78 -1 -87 17 -6 11 -17 25 -24 33
-7 7 -24 29 -37 48 -13 19 -27 37 -30 40 -3 3 -17 21 -30 40 -13 19 -29 40
-35 46 -5 6 -36 48 -68 93 -33 44 -63 81 -68 81 -5 0 -9 -88 -9 -200 l0 -200
-80 0 -80 0 0 338 c0 186 3 342 7 345 3 4 35 7 69 7 51 0 67 -4 83 -21z m662
9 c9 -7 27 -49 42 -93 48 -146 126 -367 132 -373 11 -11 23 14 55 108 17 52
35 104 40 115 5 11 24 65 41 120 44 135 45 136 138 133 74 -3 76 -4 73 -28 -1
-14 -7 -35 -12 -47 -6 -13 -14 -34 -20 -48 -5 -14 -15 -37 -21 -52 -15 -36
-29 -72 -40 -100 -5 -13 -13 -33 -18 -45 -5 -13 -40 -101 -77 -195 l-68 -173
-91 0 -91 0 -13 38 c-7 20 -17 47 -22 60 -18 43 -28 69 -79 202 -68 176 -66
171 -78 200 -5 14 -20 52 -33 85 -12 33 -27 66 -32 73 -17 22 11 32 89 32 41
0 76 -5 85 -12z m1077 0 c13 -13 16 -96 4 -115 -6 -9 -58 -13 -182 -15 l-175
-3 0 -60 0 -60 140 -2 c195 -4 185 0 185 -78 l0 -65 -162 -2 -163 -3 0 -65 0
-65 185 -5 185 -5 3 -67 3 -68 -275 0 -275 0 -3 336 c-3 290 -1 337 12 345 24
14 504 11 518 -3z m547 -24 c44 -21 68 -41 90 -74 28 -42 30 -51 30 -135 -1
-102 -12 -133 -69 -183 -20 -17 -36 -36 -36 -41 0 -9 68 -124 101 -173 32 -44
26 -48 -75 -48 l-94 0 -43 86 c-24 48 -54 93 -66 101 -13 9 -40 13 -70 11
l-48 -3 -5 -95 -5 -95 -87 -3 -88 -3 0 339 c0 186 3 342 8 346 4 5 95 6 202 4
190 -5 196 -6 255 -34z m713 -36 l3 -68 -94 0 c-59 0 -97 -4 -105 -12 -9 -9
-12 -84 -12 -275 l0 -263 -85 0 -85 0 0 269 c0 236 -2 270 -16 275 -9 3 -53 6
-99 6 -92 0 -95 2 -95 70 0 75 -20 71 299 68 l286 -3 3 -67z"/>
<path d="M1225 2148 c-32 -17 -76 -61 -91 -90 -22 -43 -18 -156 7 -198 59 -96
166 -127 255 -75 55 32 82 71 97 140 9 43 8 63 -2 92 -35 100 -90 143 -183
143 -35 0 -72 -6 -83 -12z"/>
<path d="M3882 2064 l3 -109 50 -3 c77 -5 135 7 161 33 19 19 24 35 24 78 0
44 -4 58 -25 77 -22 21 -38 25 -121 28 l-95 4 3 -108z"/>
</g>
</svg>
